<svg version="1.1"
     baseProfile="full"
     width="11in" height="8.5in"
     xmlns="http://www.w3.org/2000/svg">

  <style>
    rect, ellipse { fill: none; stroke: #ddd }
  </style>
  
  <rect x="0.5in" y="0.5in" width="2in" height="1.5in"/>
  <rect x="2.5in" y="0.5in" width="2in" height="1.5in"/>
  <rect x="4.5in" y="0.5in" width="2in" height="1.5in"/>
  <rect x="6.5in" y="0.5in" width="2in" height="1.5in"/>
  <rect x="8.5in" y="0.5in" width="2in" height="1.5in"/>

  <rect x="0.5in" y="2.0in" width="2in" height="1.5in"/>
  <rect x="2.5in" y="2.0in" width="2in" height="1.5in"/>
  <rect x="4.5in" y="2.0in" width="2in" height="1.5in"/>
  <rect x="6.5in" y="2.0in" width="2in" height="1.5in"/>
  <rect x="8.5in" y="2.0in" width="2in" height="1.5in"/>

  <rect x="0.5in" y="3.5in" width="2in" height="1.5in"/>
  <rect x="2.5in" y="3.5in" width="2in" height="1.5in"/>
  <rect x="4.5in" y="3.5in" width="2in" height="1.5in"/>
  <rect x="6.5in" y="3.5in" width="2in" height="1.5in"/>
  <rect x="8.5in" y="3.5in" width="2in" height="1.5in"/>

  <rect x="0.5in" y="5.0in" width="2in" height="1.5in"/>
  <rect x="2.5in" y="5.0in" width="2in" height="1.5in"/>
  <rect x="4.5in" y="5.0in" width="2in" height="1.5in"/>
  <rect x="6.5in" y="5.0in" width="2in" height="1.5in"/>
  <rect x="8.5in" y="5.0in" width="2in" height="1.5in"/>

  <rect x="0.5in" y="6.5in" width="2in" height="1.5in"/>
  <rect x="2.5in" y="6.5in" width="2in" height="1.5in"/>
  <rect x="4.5in" y="6.5in" width="2in" height="1.5in"/>
  <rect x="6.5in" y="6.5in" width="2in" height="1.5in"/>
  <rect x="8.5in" y="6.5in" width="2in" height="1.5in"/>

  <ellipse cx="1.5in" cy="1.25in" rx="0.55in" ry="0.4in"/>
  <ellipse cx="3.5in" cy="1.25in" rx="0.55in" ry="0.4in"/>
  <ellipse cx="5.5in" cy="1.25in" rx="0.55in" ry="0.4in"/>
  <ellipse cx="7.5in" cy="1.25in" rx="0.55in" ry="0.4in"/>
  <ellipse cx="9.5in" cy="1.25in" rx="0.55in" ry="0.4in"/>

  <ellipse cx="1.5in" cy="2.75in" rx="0.55in" ry="0.4in"/>
  <ellipse cx="3.5in" cy="2.75in" rx="0.55in" ry="0.4in"/>
  <ellipse cx="5.5in" cy="2.75in" rx="0.55in" ry="0.4in"/>
  <ellipse cx="7.5in" cy="2.75in" rx="0.55in" ry="0.4in"/>
  <ellipse cx="9.5in" cy="2.75in" rx="0.55in" ry="0.4in"/>

  <ellipse cx="1.5in" cy="4.25in" rx="0.55in" ry="0.4in"/>
  <ellipse cx="3.5in" cy="4.25in" rx="0.55in" ry="0.4in"/>
  <ellipse cx="5.5in" cy="4.25in" rx="0.55in" ry="0.4in"/>
  <ellipse cx="7.5in" cy="4.25in" rx="0.55in" ry="0.4in"/>
  <ellipse cx="9.5in" cy="4.25in" rx="0.55in" ry="0.4in"/>

  <ellipse cx="1.5in" cy="5.75in" rx="0.55in" ry="0.4in"/>
  <ellipse cx="3.5in" cy="5.75in" rx="0.55in" ry="0.4in"/>
  <ellipse cx="5.5in" cy="5.75in" rx="0.55in" ry="0.4in"/>
  <ellipse cx="7.5in" cy="5.75in" rx="0.55in" ry="0.4in"/>
  <ellipse cx="9.5in" cy="5.75in" rx="0.55in" ry="0.4in"/>

  <ellipse cx="1.5in" cy="7.25in" rx="0.55in" ry="0.4in"/>
  <ellipse cx="3.5in" cy="7.25in" rx="0.55in" ry="0.4in"/>
  <ellipse cx="5.5in" cy="7.25in" rx="0.55in" ry="0.4in"/>
  <ellipse cx="7.5in" cy="7.25in" rx="0.55in" ry="0.4in"/>
  <ellipse cx="9.5in" cy="7.25in" rx="0.55in" ry="0.4in"/>
</svg>
